<svg xmlns="http://www.w3.org/2000/svg" xmlns:xlink="http://www.w3.org/1999/xlink" width="500" zoomAndPan="magnify" viewBox="0 0 375 374.999991" height="500" preserveAspectRatio="xMidYMid meet" version="1.2"><defs><clipPath id="e07e3010cc"><path d="M 92.0625 73.257812 L 282.5625 73.257812 L 282.5625 263.757812 L 92.0625 263.757812 Z M 92.0625 73.257812 "/></clipPath><clipPath id="e1494a7951"><path d="M 0.28125 12 L 24 12 L 24 35 L 0.28125 35 Z M 0.28125 12 "/></clipPath><clipPath id="78465c3e0c"><rect x="0" width="157" y="0" height="47"/></clipPath></defs><g id="d552e6dcb7"><path style=" stroke:none;fill-rule:nonzero;fill:#ffde59;fill-opacity:1;" d="M 187.472656 168.367188 L 154.835938 224.894531 L 187.472656 191.996094 L 220.109375 224.894531 L 187.472656 168.367188 "/><path style=" stroke:none;fill-rule:nonzero;fill:#cb6ce6;fill-opacity:1;" d="M 138.253906 224.894531 L 187.472656 139.644531 L 126.773438 200.828125 Z M 138.253906 224.894531 "/><path style=" stroke:none;fill-rule:nonzero;fill:#ffde59;fill-opacity:1;" d="M 126.773438 200.828125 L 187.472656 139.644531 L 236.691406 224.894531 L 187.472656 95.699219 L 126.773438 200.828125 "/><path style=" stroke:none;fill-rule:nonzero;fill:#cb6ce6;fill-opacity:1;" d="M 187.472656 95.699219 L 236.691406 224.894531 L 248.167969 200.828125 Z M 187.472656 95.699219 "/><g clip-rule="nonzero" clip-path="url(#e07e3010cc)"><path style=" stroke:none;fill-rule:nonzero;fill:#ffde59;fill-opacity:1;" d="M 187.472656 247.914062 C 143.703125 247.914062 108.222656 212.4375 108.222656 168.667969 C 108.222656 124.898438 143.703125 89.417969 187.472656 89.417969 C 231.242188 89.417969 266.71875 124.898438 266.71875 168.667969 C 266.71875 212.4375 231.242188 247.914062 187.472656 247.914062 Z M 187.472656 73.242188 C 134.769531 73.242188 92.046875 115.964844 92.046875 168.667969 C 92.046875 221.367188 134.769531 264.089844 187.472656 264.089844 C 240.171875 264.089844 282.894531 221.367188 282.894531 168.667969 C 282.894531 115.964844 240.171875 73.242188 187.472656 73.242188 "/></g><g transform="matrix(1,0,0,1,113,259)"><g clip-path="url(#78465c3e0c)"><g clip-rule="nonzero" clip-path="url(#e1494a7951)"><g style="fill:#cb6ce6;fill-opacity:1;"><g transform="translate(0.432666, 34.433784)"><path style="stroke:none" d="M 0.15625 0 L 8.71875 -22.015625 L 15 -22.015625 L 23.5625 0 L 16.796875 0 L 15.59375 -3.109375 L 8.078125 -3.109375 L 6.890625 0 Z M 9.40625 -7.765625 L 14.3125 -7.765625 L 11.859375 -14.59375 Z M 9.40625 -7.765625 "/></g></g></g><g style="fill:#cb6ce6;fill-opacity:1;"><g transform="translate(32.123551, 34.433784)"><path style="stroke:none" d="M 2.328125 0 L 2.328125 -22.015625 L 7.515625 -22.015625 L 14.90625 -11.546875 L 22.328125 -22.015625 L 27.484375 -22.015625 L 27.484375 0 L 21.203125 0 L 21.203125 -11.140625 L 16.984375 -5.21875 L 12.859375 -5.21875 L 8.625 -11.171875 L 8.625 0 Z M 2.328125 0 "/></g></g><g style="fill:#cb6ce6;fill-opacity:1;"><g transform="translate(69.912669, 34.433784)"><path style="stroke:none" d="M 2.328125 0 L 2.328125 -22.015625 L 8.6875 -22.015625 L 8.6875 0 Z M 2.328125 0 "/></g></g><g style="fill:#cb6ce6;fill-opacity:1;"><g transform="translate(88.904133, 34.433784)"><path style="stroke:none" d="M 12.828125 0.46875 C 10.503906 0.46875 8.457031 -0.0078125 6.6875 -0.96875 C 4.914062 -1.9375 3.535156 -3.285156 2.546875 -5.015625 C 1.554688 -6.742188 1.0625 -8.742188 1.0625 -11.015625 C 1.0625 -13.273438 1.554688 -15.265625 2.546875 -16.984375 C 3.535156 -18.703125 4.90625 -20.046875 6.65625 -21.015625 C 8.40625 -21.992188 10.429688 -22.484375 12.734375 -22.484375 C 14.597656 -22.484375 16.304688 -22.15625 17.859375 -21.5 C 19.410156 -20.851562 20.726562 -19.941406 21.8125 -18.765625 C 22.894531 -17.597656 23.644531 -16.207031 24.0625 -14.59375 L 17.296875 -14.59375 C 16.878906 -15.28125 16.273438 -15.820312 15.484375 -16.21875 C 14.703125 -16.625 13.816406 -16.828125 12.828125 -16.828125 C 11.742188 -16.828125 10.785156 -16.578125 9.953125 -16.078125 C 9.128906 -15.585938 8.484375 -14.90625 8.015625 -14.03125 C 7.554688 -13.164062 7.328125 -12.160156 7.328125 -11.015625 C 7.328125 -9.898438 7.546875 -8.898438 7.984375 -8.015625 C 8.429688 -7.140625 9.066406 -6.445312 9.890625 -5.9375 C 10.722656 -5.4375 11.722656 -5.1875 12.890625 -5.1875 C 14.148438 -5.1875 15.203125 -5.472656 16.046875 -6.046875 C 16.898438 -6.628906 17.484375 -7.378906 17.796875 -8.296875 L 11.734375 -8.296875 L 11.734375 -12.765625 L 24.46875 -12.765625 C 24.632812 -10.835938 24.484375 -9.066406 24.015625 -7.453125 C 23.546875 -5.835938 22.789062 -4.4375 21.75 -3.25 C 20.707031 -2.070312 19.429688 -1.15625 17.921875 -0.5 C 16.410156 0.144531 14.710938 0.46875 12.828125 0.46875 Z M 12.828125 0.46875 "/></g></g><g style="fill:#cb6ce6;fill-opacity:1;"><g transform="translate(122.418195, 34.433784)"><path style="stroke:none" d="M 13.046875 0.46875 C 11.285156 0.46875 9.675781 0.191406 8.21875 -0.359375 C 6.757812 -0.910156 5.492188 -1.703125 4.421875 -2.734375 C 3.359375 -3.765625 2.53125 -4.984375 1.9375 -6.390625 C 1.351562 -7.796875 1.0625 -9.335938 1.0625 -11.015625 C 1.0625 -12.691406 1.351562 -14.226562 1.9375 -15.625 C 2.53125 -17.03125 3.359375 -18.25 4.421875 -19.28125 C 5.492188 -20.3125 6.757812 -21.101562 8.21875 -21.65625 C 9.675781 -22.207031 11.285156 -22.484375 13.046875 -22.484375 C 14.804688 -22.484375 16.414062 -22.207031 17.875 -21.65625 C 19.332031 -21.101562 20.597656 -20.3125 21.671875 -19.28125 C 22.742188 -18.25 23.570312 -17.03125 24.15625 -15.625 C 24.738281 -14.226562 25.03125 -12.691406 25.03125 -11.015625 C 25.03125 -9.335938 24.738281 -7.796875 24.15625 -6.390625 C 23.570312 -4.984375 22.742188 -3.765625 21.671875 -2.734375 C 20.597656 -1.703125 19.332031 -0.910156 17.875 -0.359375 C 16.414062 0.191406 14.804688 0.46875 13.046875 0.46875 Z M 7.515625 -11.015625 C 7.515625 -9.921875 7.75 -8.945312 8.21875 -8.09375 C 8.695312 -7.25 9.351562 -6.585938 10.1875 -6.109375 C 11.03125 -5.640625 11.984375 -5.40625 13.046875 -5.40625 C 14.140625 -5.40625 15.097656 -5.640625 15.921875 -6.109375 C 16.753906 -6.585938 17.40625 -7.25 17.875 -8.09375 C 18.351562 -8.945312 18.59375 -9.921875 18.59375 -11.015625 C 18.59375 -12.117188 18.351562 -13.085938 17.875 -13.921875 C 17.40625 -14.765625 16.753906 -15.421875 15.921875 -15.890625 C 15.097656 -16.367188 14.140625 -16.609375 13.046875 -16.609375 C 11.984375 -16.609375 11.03125 -16.367188 10.1875 -15.890625 C 9.351562 -15.421875 8.695312 -14.765625 8.21875 -13.921875 C 7.75 -13.085938 7.515625 -12.117188 7.515625 -11.015625 Z M 7.515625 -11.015625 "/></g></g></g></g></g></svg>